<?xml version="1.0" encoding="utf-8"?>
<!-- Generator: Adobe Illustrator 16.0.0, SVG Export Plug-In . SVG Version: 6.00 Build 0)  -->
<!DOCTYPE svg PUBLIC "-//W3C//DTD SVG 1.1//EN" "http://www.w3.org/Graphics/SVG/1.1/DTD/svg11.dtd">
<svg version="1.1" id="Capa_1" xmlns="http://www.w3.org/2000/svg" xmlns:xlink="http://www.w3.org/1999/xlink" x="0px" y="0px"
	 width="255.12px" height="141.73px" viewBox="0 0 255.12 141.73" enable-background="new 0 0 255.12 141.73" xml:space="preserve">
<g>
	<g>
		<path fill="#434041" d="M32.013,91.607v7.875c0,1.229-0.521,1.842-1.563,1.842h-1.095c-1.047,0-1.558-0.615-1.558-1.85v-7.867
			h1.292v7.906c0,0.424,0.191,0.633,0.574,0.633h0.527c0.351,0,0.526-0.209,0.526-0.633v-7.906H32.013z"/>
		<path fill="#434041" d="M37.271,96.303v-4.695h1.313v9.717h-1.313v-1.936l-1.388-4.428v6.363h-1.303v-9.717h1.303L37.271,96.303z"
			/>
		<path fill="#434041" d="M41.158,101.324v-9.717h1.297v9.717H41.158z"/>
		<path fill="#434041" d="M49.24,91.607l-1.58,9.717H46.13l-1.579-9.717h1.292l1.058,7.416l1.053-7.416H49.24z"/>
		<path fill="#434041" d="M51.202,101.324v-9.717h3.228v1.172H52.5v2.951h1.707v1.184H52.5v3.232h1.93v1.178H51.202z"/>
		<path fill="#434041" d="M56.706,91.607h2.547c0.994,0,1.489,0.551,1.489,1.664v2.396c0,0.848-0.25,1.385-0.76,1.607l0.899,4.049
			h-1.229l-0.856-3.926h-0.792v3.926h-1.297V91.607z M58.003,96.289h0.856c0.394,0,0.59-0.234,0.59-0.707v-2.096
			c0-0.467-0.197-0.707-0.59-0.707h-0.856V96.289z"/>
		<path fill="#434041" d="M65.676,94.219v-0.854c0-0.389-0.192-0.586-0.574-0.586h-0.202c-0.361,0-0.559,0.197-0.559,0.586v1.605
			c0,0.189,0.043,0.311,0.112,0.369c0.074,0.064,0.197,0.141,0.361,0.242l1.229,0.662c0.266,0.16,0.458,0.279,0.574,0.365
			c0.117,0.082,0.202,0.188,0.266,0.313c0.059,0.123,0.091,0.352,0.091,0.693v2.074c0,1.094-0.521,1.635-1.563,1.635h-0.798
			c-1.042,0-1.558-0.592-1.558-1.785v-0.484h1.287v0.525c0,0.379,0.202,0.566,0.59,0.566h0.234c0.34,0,0.511-0.188,0.511-0.566
			v-1.65c0-0.184-0.038-0.301-0.112-0.367c-0.075-0.068-0.186-0.146-0.351-0.244l-1.228-0.691c-0.271-0.141-0.468-0.266-0.596-0.367
			c-0.117-0.096-0.207-0.221-0.26-0.383c-0.053-0.158-0.075-0.363-0.075-0.615v-1.99c0-1.113,0.516-1.664,1.558-1.664h0.803
			c1.037,0,1.558,0.551,1.558,1.664v0.947H65.676z"/>
		<path fill="#434041" d="M69.414,101.324v-9.717h1.298v9.717H69.414z"/>
		<path fill="#434041" d="M73.279,101.324v-9.717h2.265c1.223,0,1.824,0.619,1.824,1.863v6.447c0,0.939-0.516,1.406-1.547,1.406
			H73.279z M74.582,100.146h0.979c0.34,0,0.521-0.141,0.521-0.434v-6.227c0-0.467-0.197-0.707-0.59-0.707h-0.909V100.146z"/>
		<path fill="#434041" d="M81.117,101.324h-1.309v-8.053c0-1.113,0.521-1.664,1.558-1.664h0.979c1.037,0,1.558,0.551,1.558,1.664
			v8.053H82.6v-3.559h-1.483V101.324z M82.6,96.588V93.35c0-0.379-0.191-0.57-0.569-0.57h-0.351c-0.373,0-0.563,0.191-0.563,0.57
			v3.238H82.6z"/>
		<path fill="#434041" d="M86.407,101.324v-9.717h2.255c1.223,0,1.834,0.619,1.834,1.863v6.447c0,0.939-0.516,1.406-1.558,1.406
			H86.407z M87.71,100.146h0.967c0.352,0,0.511-0.141,0.511-0.434v-6.227c0-0.467-0.191-0.707-0.575-0.707H87.71V100.146z"/>
		<path fill="#434041" d="M96.521,101.324v-9.717h2.26c1.217,0,1.828,0.619,1.828,1.863v6.447c0,0.939-0.516,1.406-1.558,1.406
			H96.521z M97.823,100.146h0.968c0.346,0,0.511-0.141,0.511-0.434v-6.227c0-0.467-0.181-0.707-0.574-0.707h-0.904V100.146z"/>
		<path fill="#434041" d="M103.109,101.324v-9.717h3.227v1.172h-1.924v2.951h1.711v1.184h-1.711v3.232h1.924v1.178H103.109z"/>
		<path fill="#434041" d="M114.785,97.318l1.202-5.711h1.446v9.717h-1.303l0.133-6.363l-0.973,4.604h-1.006l-0.973-4.604
			l0.133,6.363h-1.297v-9.717h1.436L114.785,97.318z"/>
		<path fill="#434041" d="M120.002,101.324v-9.717h3.217v1.172h-1.92v2.951H123v1.184h-1.701v3.232h1.92v1.178H120.002z"/>
		<path fill="#434041" d="M125.516,101.324v-9.717h2.26c1.217,0,1.824,0.619,1.824,1.863v6.447c0,0.939-0.521,1.406-1.559,1.406
			H125.516z M126.808,100.146h0.974c0.34,0,0.521-0.141,0.521-0.434v-6.227c0-0.467-0.192-0.707-0.579-0.707h-0.915V100.146z"/>
		<path fill="#434041" d="M132.104,101.324v-9.717h1.297v9.717H132.104z"/>
		<path fill="#434041" d="M137.479,101.324c-1.041,0-1.563-0.547-1.563-1.648v-6.404c0-1.113,0.51-1.664,1.553-1.664h1.244
			c1.042,0,1.553,0.551,1.553,1.664v6.404c0,1.102-0.521,1.648-1.568,1.648H137.479z M137.787,100.146h0.665
			c0.346,0,0.516-0.188,0.516-0.566v-6.23c0-0.379-0.191-0.57-0.585-0.57h-0.611c-0.378,0-0.559,0.191-0.559,0.57v6.23
			C137.213,99.959,137.404,100.146,137.787,100.146z"/>
		<path fill="#434041" d="M145.258,94.219v-0.854c0-0.389-0.186-0.586-0.568-0.586h-0.197c-0.367,0-0.559,0.197-0.559,0.586v1.605
			c0,0.189,0.043,0.311,0.107,0.369c0.079,0.064,0.196,0.141,0.361,0.242l1.233,0.662c0.266,0.16,0.452,0.279,0.569,0.365
			c0.111,0.082,0.196,0.188,0.266,0.313c0.063,0.123,0.096,0.352,0.096,0.693v2.074c0,1.094-0.527,1.635-1.568,1.635h-0.793
			c-1.047,0-1.568-0.592-1.568-1.785v-0.484h1.297v0.525c0,0.379,0.197,0.566,0.591,0.566h0.224c0.346,0,0.51-0.188,0.51-0.566
			v-1.65c0-0.184-0.031-0.301-0.111-0.367c-0.063-0.068-0.181-0.146-0.34-0.244l-1.229-0.691c-0.271-0.141-0.469-0.266-0.602-0.367
			c-0.117-0.096-0.201-0.221-0.254-0.383c-0.059-0.158-0.086-0.363-0.086-0.615v-1.99c0-1.113,0.521-1.664,1.568-1.664h0.798
			c1.036,0,1.563,0.551,1.563,1.664v0.947H145.258z"/>
		<path fill="#434041" d="M153.76,101.324h-1.307v-8.053c0-1.113,0.521-1.664,1.557-1.664h0.984c1.037,0,1.547,0.551,1.547,1.664
			v8.053h-1.297v-3.559h-1.484V101.324z M155.244,96.588V93.35c0-0.379-0.197-0.57-0.569-0.57h-0.351
			c-0.383,0-0.564,0.191-0.564,0.57v3.238H155.244z"/>
		<path fill="#434041" d="M163.278,91.607v7.875c0,1.229-0.532,1.842-1.579,1.842h-1.09c-1.037,0-1.563-0.615-1.563-1.85v-7.867
			h1.298v7.906c0,0.424,0.196,0.633,0.568,0.633h0.531c0.356,0,0.532-0.209,0.532-0.633v-7.906H163.278z"/>
		<path fill="#434041" d="M165.847,101.324v-9.717h2.26c1.229,0,1.829,0.619,1.829,1.863v6.447c0,0.939-0.521,1.406-1.553,1.406
			H165.847z M167.144,100.146h0.979c0.346,0,0.511-0.141,0.511-0.434v-6.227c0-0.467-0.187-0.707-0.58-0.707h-0.909V100.146z"/>
		<path fill="#434041" d="M172.439,101.324v-9.717h1.303v9.717H172.439z"/>
		<path fill="#434041" d="M177.815,101.324c-1.048,0-1.573-0.547-1.573-1.648v-6.404c0-1.113,0.521-1.664,1.563-1.664h1.244
			c1.031,0,1.558,0.551,1.558,1.664v6.404c0,1.102-0.526,1.648-1.567,1.648H177.815z M178.118,100.146h0.675
			c0.342,0,0.517-0.188,0.517-0.566v-6.23c0-0.379-0.202-0.57-0.585-0.57h-0.617c-0.366,0-0.568,0.191-0.568,0.57v6.23
			C177.539,99.959,177.741,100.146,178.118,100.146z"/>
		<path fill="#434041" d="M187.322,91.607l-1.568,9.717h-1.547l-1.574-9.717h1.292l1.058,7.416l1.053-7.416H187.322z"/>
		<path fill="#434041" d="M189.424,101.324v-9.717h1.302v9.717H189.424z"/>
		<path fill="#434041" d="M195.782,94.219v-0.854c0-0.389-0.192-0.586-0.569-0.586h-0.201c-0.378,0-0.559,0.197-0.559,0.586v1.605
			c0,0.189,0.047,0.311,0.111,0.369c0.069,0.064,0.186,0.141,0.352,0.242l1.228,0.662c0.282,0.16,0.468,0.279,0.579,0.365
			c0.117,0.082,0.197,0.188,0.266,0.313c0.064,0.123,0.102,0.352,0.102,0.693v2.074c0,1.094-0.526,1.635-1.573,1.635h-0.804
			c-1.041,0-1.553-0.592-1.553-1.785v-0.484h1.293v0.525c0,0.379,0.196,0.566,0.59,0.566h0.229c0.346,0,0.511-0.188,0.511-0.566
			v-1.65c0-0.184-0.038-0.301-0.112-0.367c-0.068-0.068-0.18-0.146-0.346-0.244l-1.232-0.691c-0.267-0.141-0.463-0.266-0.59-0.367
			c-0.118-0.096-0.203-0.221-0.267-0.383c-0.054-0.158-0.075-0.363-0.075-0.615v-1.99c0-1.113,0.512-1.664,1.553-1.664h0.809
			c1.042,0,1.568,0.551,1.568,1.664v0.947H195.782z"/>
		<path fill="#434041" d="M203.753,91.607v7.875c0,1.229-0.532,1.842-1.579,1.842h-1.09c-1.053,0-1.563-0.615-1.563-1.85v-7.867
			h1.302v7.906c0,0.424,0.187,0.633,0.574,0.633h0.517c0.361,0,0.536-0.209,0.536-0.633v-7.906H203.753z"/>
		<path fill="#434041" d="M207.549,101.324h-1.297v-8.053c0-1.113,0.521-1.664,1.553-1.664h0.984c1.025,0,1.552,0.551,1.552,1.664
			v8.053h-1.304v-3.559h-1.488V101.324z M209.037,96.588V93.35c0-0.379-0.19-0.57-0.574-0.57h-0.34c-0.383,0-0.574,0.191-0.574,0.57
			v3.238H209.037z"/>
		<path fill="#434041" d="M215.934,101.324h-3.089v-9.717h1.298v8.539h1.791V101.324z"/>
		<path fill="#434041" d="M218.029,101.324v-9.717h3.229v1.172h-1.926v2.951h1.701v1.184h-1.701v3.232h1.926v1.178H218.029z"/>
		<path fill="#434041" d="M226.031,94.219v-0.854c0-0.389-0.191-0.586-0.568-0.586h-0.203c-0.366,0-0.547,0.197-0.547,0.586v1.605
			c0,0.189,0.031,0.311,0.106,0.369c0.063,0.064,0.19,0.141,0.341,0.242l1.238,0.662c0.266,0.16,0.463,0.279,0.574,0.365
			c0.117,0.082,0.208,0.188,0.266,0.313c0.064,0.123,0.102,0.352,0.102,0.693v2.074c0,1.094-0.531,1.635-1.574,1.635h-0.803
			c-1.037,0-1.547-0.592-1.547-1.785v-0.484h1.297v0.525c0,0.379,0.181,0.566,0.58,0.566h0.229c0.335,0,0.51-0.188,0.51-0.566v-1.65
			c0-0.184-0.031-0.301-0.105-0.367c-0.069-0.068-0.192-0.146-0.352-0.244l-1.232-0.691c-0.272-0.141-0.475-0.266-0.596-0.367
			c-0.117-0.096-0.197-0.221-0.262-0.383c-0.047-0.158-0.068-0.363-0.068-0.615v-1.99c0-1.113,0.51-1.664,1.547-1.664h0.819
			c1.031,0,1.558,0.551,1.558,1.664v0.947H226.031z"/>
	</g>
	<g>
		<linearGradient id="SVGID_1_" gradientUnits="userSpaceOnUse" x1="41.7588" y1="42.5493" x2="41.7588" y2="86.5305">
			<stop  offset="0" style="stop-color:#5C5B5F"/>
			<stop  offset="1" style="stop-color:#000000"/>
		</linearGradient>
		<path fill="url(#SVGID_1_)" d="M51.601,53.438c-0.59-0.938-1.324-1.768-2.201-2.478c-0.883-0.715-1.882-1.269-2.983-1.67
			c-1.111-0.391-2.281-0.593-3.483-0.593c-2.223,0-4.116,0.437-5.668,1.292c-1.542,0.859-2.808,2.008-3.77,3.448
			c-0.962,1.452-1.664,3.095-2.1,4.938c-0.447,1.842-0.66,3.751-0.66,5.719c0,1.885,0.212,3.722,0.66,5.5
			c0.436,1.784,1.138,3.382,2.1,4.808c0.962,1.432,2.228,2.566,3.77,3.42c1.552,0.865,3.445,1.297,5.668,1.297
			c3.01,0,5.365-0.922,7.061-2.766s2.738-4.279,3.116-7.291h9.539c-0.25,2.805-0.898,5.339-1.935,7.603
			c-1.048,2.258-2.441,4.189-4.147,5.779c-1.717,1.594-3.738,2.809-6.041,3.648c-2.297,0.832-4.838,1.252-7.593,1.252
			c-3.44,0-6.535-0.596-9.273-1.789c-2.75-1.193-5.067-2.832-6.95-4.932c-1.882-2.096-3.339-4.551-4.339-7.383
			c-1.01-2.832-1.504-5.886-1.504-9.148c0-3.353,0.495-6.469,1.504-9.329c1-2.874,2.457-5.379,4.339-7.514
			c1.882-2.138,4.2-3.807,6.95-5.027c2.738-1.215,5.833-1.818,9.273-1.818c2.457,0,4.807,0.354,6.997,1.063
			c2.207,0.718,4.169,1.746,5.902,3.105c1.744,1.366,3.185,3.052,4.312,5.067c1.133,2.01,1.84,4.314,2.138,6.912h-9.55
			C52.563,55.421,52.181,54.384,51.601,53.438z"/>
		<linearGradient id="SVGID_2_" gradientUnits="userSpaceOnUse" x1="78.4155" y1="42.5493" x2="78.4155" y2="86.5294">
			<stop  offset="0" style="stop-color:#5C5B5F"/>
			<stop  offset="1" style="stop-color:#000000"/>
		</linearGradient>
		<path fill="url(#SVGID_2_)" d="M86.551,41.469l10.826,29.037L92.15,83.672l-2.451-7.318H72.917l-3.53,9.99h-9.933l16.978-44.875
			H86.551z M87.125,68.994l-5.663-16.462h-0.127l-5.844,16.462H87.125z"/>
		<linearGradient id="SVGID_3_" gradientUnits="userSpaceOnUse" x1="115.5054" y1="42.5493" x2="115.5054" y2="86.5294">
			<stop  offset="0" style="stop-color:#5C5B5F"/>
			<stop  offset="1" style="stop-color:#000000"/>
		</linearGradient>
		<path fill="url(#SVGID_3_)" d="M120.66,41.469l16.776,44.875h-10.241l-3.393-9.99h-16.775l-3.515,9.99h-9.938l16.963-44.875
			H120.66z M121.219,68.994l-5.646-16.462h-0.123l-5.838,16.462H121.219z"/>
		<linearGradient id="SVGID_4_" gradientUnits="userSpaceOnUse" x1="144.918" y1="42.5493" x2="144.918" y2="86.5294">
			<stop  offset="0" style="stop-color:#5C5B5F"/>
			<stop  offset="1" style="stop-color:#000000"/>
		</linearGradient>
		<path fill="url(#SVGID_4_)" d="M140.223,86.344l-16.621-44.875h10.118l12.087,31.552h0.132l10.114-31.552h10.182l-14.898,44.875
			H140.223z"/>
	</g>
	<linearGradient id="SVGID_5_" gradientUnits="userSpaceOnUse" x1="200.0098" y1="43.1172" x2="200.0098" y2="82.4891">
		<stop  offset="0" style="stop-color:#E0040B"/>
		<stop  offset="1" style="stop-color:#93121E"/>
	</linearGradient>
	<path fill="url(#SVGID_5_)" d="M222.325,41.469h-51.683l-4.876,14.843c0.569-0.641,1.165-1.258,1.792-1.858
		c1.436-1.303,3.057-2.47,4.812-3.467c1.761-1.005,3.718-1.704,5.737-2.217c1.012-0.253,2.048-0.441,3.09-0.566
		c0.266-0.043,0.526-0.048,0.792-0.066l0.75-0.029l0.84-0.003l0.798,0.019c2.1,0.085,4.094,0.394,6.023,0.806
		c3.834,0.869,7.322,2.236,10.684,3.677c3.328,1.491,6.523,3.073,9.612,4.68c3.058,1.656,6.137,3.113,9.034,4.387
		c1.431,0.611,2.963,1.023,4.127,1.275c0.973,0.109,1.557,0.197,2.376,0.229c0.771,0.025,1.532-0.009,2.308-0.062
		c1.92-0.117,3.877-0.608,5.711-1.531v-8.184C234.252,46.813,228.914,41.469,222.325,41.469z"/>
	<linearGradient id="SVGID_6_" gradientUnits="userSpaceOnUse" x1="195.0781" y1="43.1138" x2="195.0781" y2="82.4914">
		<stop  offset="0" style="stop-color:#E0040B"/>
		<stop  offset="1" style="stop-color:#93121E"/>
	</linearGradient>
	<path fill="url(#SVGID_6_)" d="M223.926,66.575c-1.845,0-3.621-0.375-5.349-0.856c-3.456-0.991-6.722-2.43-9.96-3.873
		c-3.221-1.463-6.422-2.979-9.672-4.379c-3.227-1.423-6.486-2.758-9.863-3.696c-3.37-0.945-6.869-1.403-10.31-0.832
		c-3.43,0.529-6.716,1.928-9.598,3.885c-1.781,1.204-3.445,2.627-4.95,4.185l-8.321,25.336h66.422
		c6.589,0,11.927-5.344,11.927-11.934V63.549c-1.5,1.061-3.211,1.837-4.971,2.331C227.537,66.356,225.702,66.558,223.926,66.575z
		 M182.133,78.949c-5.264,0-9.539-4.266-9.539-9.543c0-5.267,4.275-9.536,9.539-9.536c5.27,0,9.545,4.27,9.545,9.536
		C191.678,74.684,187.402,78.949,182.133,78.949z"/>
</g>
</svg>
